Jump_normalized_pl02_filtered_grf
version=1
nRows=10
nColumns=37
inDegrees=yes
endheader
time		1_ground_force_vx		1_ground_force_vy		1_ground_force_vz		1_ground_force_px		1_ground_force_py		1_ground_force_pz		1_ground_torque_x		1_ground_torque_y		1_ground_torque_z		2_ground_force_vx		2_ground_force_vy		2_ground_force_vz		2_ground_force_px		2_ground_force_py		2_ground_force_pz		2_ground_torque_x		2_ground_torque_y		2_ground_torque_z		3_ground_force_vx		3_ground_force_vy		3_ground_force_vz		3_ground_force_px		3_ground_force_py		3_ground_force_pz		3_ground_torque_x		3_ground_torque_y		3_ground_torque_z		4_ground_force_vx		4_ground_force_vy		4_ground_force_vz		4_ground_force_px		4_ground_force_py		4_ground_force_pz		4_ground_torque_x		4_ground_torque_y		4_ground_torque_z		
0.172833		0.000000		-0.000000		-0.000000		0.149275		0.000000		0.265966		-0.000000		-0.000000		0.000000		-0.000000		-0.000000		-0.000000		-0.133537		0.000000		0.279475		-0.000000		0.000000		-0.000000		10.938953		61.897832		88.755894		0.373946		1.309150		1.917110		-0.516331		-2.921740		-4.189502		-16.854628		278.462105		410.510857		-0.266128		1.309670		1.926984		-0.678027		11.201966		16.514025		
0.175384		0.000000		-0.000000		-0.000000		0.149275		0.000000		0.265966		-0.000000		-0.000000		0.000000		0.000000		-0.000000		-0.000000		-0.133537		0.000000		0.279475		-0.000000		0.000000		-0.000000		12.444252		48.981013		71.928034		0.373920		1.309207		1.917133		-0.578587		-2.277457		-3.344406		-16.365935		274.522223		411.281195		-0.266138		1.309718		1.926839		-0.659497		11.062406		16.573377		
0.177934		-0.000000		0.000000		0.000000		0.149275		0.000000		0.265966		0.000000		0.000000		-0.000000		0.000000		-0.000000		-0.000000		-0.133537		0.000000		0.279475		-0.000000		0.000000		-0.000000		14.189154		36.701459		55.525769		0.373884		1.309260		1.917153		-0.641500		-1.659418		-2.510525		-15.855812		270.505204		411.468233		-0.266143		1.309766		1.926682		-0.639900		10.916893		16.605799		
0.180485		-0.000000		0.000000		0.000000		0.149275		0.000000		0.265966		0.000000		0.000000		-0.000000		0.000000		-0.000000		-0.000000		-0.133537		0.000000		0.279475		-0.000000		0.000000		-0.000000		16.048906		25.611189		40.177505		0.373842		1.309303		1.917165		-0.682585		-1.089339		-1.708892		-15.347992		266.309758		411.126454		-0.266143		1.309811		1.926514		-0.620318		10.763425		16.616473		
0.183035		-0.000000		0.000000		0.000000		0.149275		0.000000		0.265966		0.000000		0.000000		-0.000000		0.000000		0.000000		0.000000		-0.133537		0.000000		0.279475		0.000000		-0.000000		0.000000		17.868570		16.222770		26.574238		0.373800		1.309330		1.917167		-0.649585		-0.589992		-0.966428		-14.869225		261.874921		410.317935		-0.266140		1.309850		1.926336		-0.601914		10.600845		16.609904		
0.185586		-0.000000		0.000000		0.000000		0.149275		0.000000		0.265966		0.000000		0.000000		-0.000000		0.000000		0.000000		0.000000		-0.133537		0.000000		0.279475		0.000000		-0.000000		0.000000		19.493716		8.881518		15.313218		0.373763		1.309340		1.917154		-0.464645		-0.212273		-0.365926		-14.442445		257.184048		409.097593		-0.266134		1.309881		1.926153		-0.585636		10.428729		16.588776		
0.188136		-0.000000		0.000000		0.000000		0.149275		0.000000		0.265966		0.000000		0.000000		-0.000000		0.000000		0.000000		0.000000		-0.133537		0.000000		0.279475		0.000000		-0.000000		0.000000		20.802364		3.696817		6.763808		0.373733		1.309335		1.917127		-0.200746		-0.036006		-0.065848		-14.080726		252.255164		407.494111		-0.266130		1.309902		1.925967		-0.571978		10.246945		16.552964		
0.190687		-0.000000		0.000000		0.000000		0.149275		0.000000		0.265966		0.000000		0.000000		-0.000000		-0.000000		0.000000		0.000000		-0.133537		0.000000		0.279475		0.000000		-0.000000		0.000000		21.726524		0.531668		0.988516		0.373714		1.309324		1.917082		-0.083241		-0.002072		-0.003857		-13.783598		247.126638		405.499141		-0.266128		1.309911		1.925787		-0.560838		10.055296		16.499292		
0.193237		0.000000		-0.000000		-0.000000		0.149275		0.000000		0.265966		-0.000000		-0.000000		0.000000		-0.000000		0.000000		0.000000		-0.133537		0.000000		0.279475		0.000000		-0.000000		0.000000		22.259700		-0.956354		-2.262874		0.373707		1.309315		1.917024		-0.078377		0.003371		0.007976		-13.536245		241.842188		403.066411		-0.266132		1.309912		1.925617		-0.551511		9.853438		16.422239		
0.195788		0.000000		-0.000000		-0.000000		0.149275		0.000000		0.265966		-0.000000		-0.000000		0.000000		-0.000000		0.000000		0.000000		-0.133537		0.000000		0.279475		0.000000		-0.000000		0.000000		22.449666		-1.232062		-3.481983		0.373712		1.309314		1.916953		-0.087760		0.004816		0.013613		-13.312840		236.437552		400.120245		-0.266140		1.309905		1.925463		-0.542850		9.641068		16.315457		
